<svg id="Layer_1" data-name="Layer 1" xmlns="http://www.w3.org/2000/svg" width="457" height="457" viewBox="0 0 457 457"><defs><style>.cls-1{fill:#333;}</style></defs><g id="Layer_2" data-name="Layer 2"><path class="cls-1" d="M256,27.5A228.49,228.49,0,0,0,94.43,417.57,228.49,228.49,0,1,0,417.57,94.43,227,227,0,0,0,256,27.5Zm0,425C147.65,452.5,59.5,364.35,59.5,256S147.65,59.5,256,59.5,452.5,147.65,452.5,256,364.35,452.5,256,452.5Z" transform="translate(-27.5 -27.5)"/><path class="cls-1" d="M323.39,133.21a95.34,95.34,0,0,0-162.8,67.38,16,16,0,0,0,32,0,63.41,63.41,0,0,1,65-63.38c33.32.78,61.06,28.53,61.85,61.85A63.38,63.38,0,0,1,286.89,256C258,272.16,240,302.39,240,335a16,16,0,0,0,32-.08c0-20.92,11.69-40.45,30.5-51a95.29,95.29,0,0,0,20.89-150.72Z" transform="translate(-27.5 -27.5)"/><path class="cls-1" d="M271.69,387.68c-.11-.51-.24-1-.39-1.52a15.13,15.13,0,0,0-.53-1.47c-.2-.48-.42-1-.66-1.42s-.52-.91-.81-1.34-.6-.86-.93-1.27-.69-.8-1.06-1.17-.76-.72-1.16-1.05a14.24,14.24,0,0,0-1.27-.93c-.43-.29-.88-.56-1.34-.81s-.94-.47-1.42-.67-1-.37-1.47-.52a13.56,13.56,0,0,0-1.52-.39c-.52-.1-1-.18-1.56-.23a15,15,0,0,0-3.14,0c-.52.05-1,.13-1.56.23a13.56,13.56,0,0,0-1.52.39c-.49.15-1,.33-1.47.52s-1,.43-1.42.67-.91.52-1.34.81a14.24,14.24,0,0,0-1.27.93c-.4.33-.79.69-1.16,1.05s-.73.77-1.06,1.17-.64.83-.93,1.27-.56.88-.81,1.34a17.57,17.57,0,0,0-1.19,2.89c-.16.5-.28,1-.39,1.52s-.18,1-.23,1.55-.08,1-.08,1.58,0,1.05.08,1.57.13,1,.23,1.55.23,1,.39,1.52a15.32,15.32,0,0,0,.53,1.48,13.94,13.94,0,0,0,.66,1.41,15.06,15.06,0,0,0,.81,1.35,15.69,15.69,0,0,0,2,2.43c.37.37.76.73,1.16,1.06s.83.64,1.27.93a13.93,13.93,0,0,0,1.34.8,15.3,15.3,0,0,0,1.42.67c.48.2,1,.38,1.47.53s1,.28,1.52.39,1,.18,1.56.23,1,.08,1.57.08,1.05,0,1.57-.08,1-.13,1.56-.23,1-.24,1.52-.39,1-.33,1.47-.53a17.14,17.14,0,0,0,2.76-1.47,15.8,15.8,0,0,0,4.42-4.42,15.06,15.06,0,0,0,.81-1.35c.24-.45.46-.93.66-1.41a15.32,15.32,0,0,0,.53-1.48c.15-.5.28-1,.39-1.52s.18-1,.23-1.55.08-1.05.08-1.57,0-1.05-.08-1.58S271.79,388.19,271.69,387.68Z" transform="translate(-27.5 -27.5)"/></g></svg>