<svg xmlns="http://www.w3.org/2000/svg" width="339" height="339" viewBox="0 0 339 339"><defs><style>.cls-1{fill:#333;}</style></defs><g id="Layer_2" data-name="Layer 2"><g id="Layer_1-2" data-name="Layer 1"><g id="Layer_2-2" data-name="Layer 2"><path class="cls-1" d="M169.5,0A169.5,169.5,0,1,0,289.36,49.65,169.49,169.49,0,0,0,169.5,0Zm0,315.26c-80.37,0-145.76-65.39-145.76-145.76S89.13,23.74,169.5,23.74,315.27,89.13,315.27,169.5,249.88,315.26,169.5,315.26Z"/><path class="cls-1" d="M219.49,78.42a70.72,70.72,0,0,0-120.76,50,11.87,11.87,0,0,0,23.74,0,47,47,0,0,1,47-47h1.17c24.72.58,45.3,21.17,45.88,45.88a47,47,0,0,1-24.14,42.24,67.4,67.4,0,0,0-34.78,58.6,11.87,11.87,0,1,0,23.73-.06A43.65,43.65,0,0,1,204,190.21a70.68,70.68,0,0,0,15.49-111.8Z"/><path class="cls-1" d="M181.14,267.18c-.08-.38-.17-.74-.29-1.13a10.9,10.9,0,0,0-.39-1.09,10.15,10.15,0,0,0-.49-1c-.18-.31-.38-.68-.6-1s-.44-.63-.69-.94a10.7,10.7,0,0,0-.79-.87,10.49,10.49,0,0,0-.86-.77,9.07,9.07,0,0,0-.94-.69,10,10,0,0,0-1-.6,10.25,10.25,0,0,0-1.06-.5c-.35-.15-.74-.28-1.09-.39a10.83,10.83,0,0,0-1.12-.29c-.39-.07-.75-.13-1.16-.17a11.34,11.34,0,0,0-2.33,0c-.39,0-.74.1-1.16.17a10.83,10.83,0,0,0-1.12.29c-.37.11-.75.25-1.1.39a9.21,9.21,0,0,0-1.05.5c-.31.17-.67.38-1,.6a9.07,9.07,0,0,0-.94.69c-.3.24-.59.51-.87.77s-.54.58-.78.87a10.29,10.29,0,0,0-.69.94,11.5,11.5,0,0,0-.6,1,12.84,12.84,0,0,0-.88,2.14,10.39,10.39,0,0,0-.29,1.13,7.24,7.24,0,0,0-.17,1.15,11.17,11.17,0,0,0-.06,1.17,7.39,7.39,0,0,0,.06,1.17c.05.38.09.74.17,1.15a8.36,8.36,0,0,0,.29,1.12,10.24,10.24,0,0,0,.39,1.1,10,10,0,0,0,.49,1,10.18,10.18,0,0,0,.6,1,11.62,11.62,0,0,0,1.48,1.8c.28.28.57.54.86.79s.62.47.94.69.66.41,1,.59.69.35,1.05.5.74.28,1.09.39a11.63,11.63,0,0,0,1.13.29,10.44,10.44,0,0,0,1.16.17,11.12,11.12,0,0,0,1.16.06,7.45,7.45,0,0,0,1.17-.06l1.15-.17a9.32,9.32,0,0,0,1.13-.29,8.74,8.74,0,0,0,1.09-.39,13,13,0,0,0,2-1.09,11.91,11.91,0,0,0,3.28-3.28,10.18,10.18,0,0,0,.6-1c.18-.34.34-.69.49-1a10.24,10.24,0,0,0,.39-1.1c.11-.37.21-.74.29-1.12a11,11,0,0,0,.17-1.15c0-.41.06-.78.06-1.17a7.71,7.71,0,0,0-.06-1.17C181.26,267.94,181.22,267.56,181.14,267.18Z"/></g></g></g></svg>